<svg xmlns="http://www.w3.org/2000/svg" width="1200" height="630" viewBox="0 0 1200 630">
  <rect width="1200" height="630" fill="#070b15"/>
  <rect width="1200" height="630" fill="url(#grad)"/>
  <defs>
    <linearGradient id="grad" x1="0" y1="0" x2="0.3" y2="1"><stop offset="0%" stop-color="#0d1526"/><stop offset="100%" stop-color="#070b15"/></linearGradient>
    <radialGradient id="au1" cx="80%" cy="8%" r="60%"><stop offset="0%" stop-color="rgba(52,227,208,0.16)"/><stop offset="100%" stop-color="transparent"/></radialGradient>
    <radialGradient id="au2" cx="12%" cy="30%" r="55%"><stop offset="0%" stop-color="rgba(70,110,255,0.14)"/><stop offset="100%" stop-color="transparent"/></radialGradient>
    <radialGradient id="au3" cx="65%" cy="105%" r="60%"><stop offset="0%" stop-color="rgba(150,84,255,0.12)"/><stop offset="100%" stop-color="transparent"/></radialGradient>
  </defs>
  <rect width="1200" height="630" fill="url(#au1)"/>
  <rect width="1200" height="630" fill="url(#au2)"/>
  <rect width="1200" height="630" fill="url(#au3)"/>
  <defs>
    <radialGradient id="seadark1200630clean" cx="34%" cy="26%" r="90%">
      <stop offset="0%" stop-color="#5a9be0"/><stop offset="35%" stop-color="#2762ad"/>
      <stop offset="70%" stop-color="#123a77"/><stop offset="100%" stop-color="#050f2b"/>
    </radialGradient>
    <radialGradient id="shadedark1200630clean" cx="34%" cy="26%" r="95%">
      <stop offset="0%" stop-color="#000" stop-opacity="0"/><stop offset="72%" stop-color="#000" stop-opacity="0"/>
      <stop offset="100%" stop-color="#000814" stop-opacity="0.55"/>
    </radialGradient>
    <linearGradient id="glossdark1200630clean" x1="0" y1="0" x2="0" y2="1">
      <stop offset="0%" stop-color="#fff" stop-opacity="0.9"/><stop offset="60%" stop-color="#fff" stop-opacity="0.25"/>
      <stop offset="100%" stop-color="#fff" stop-opacity="0"/>
    </linearGradient>
    <clipPath id="discdark1200630clean"><circle cx="32" cy="32" r="28"/></clipPath>
  </defs>
  <g transform="translate(484.80 99.00) scale(3.6000)">
    <circle cx="32" cy="32" r="30" fill="#0a1e42" opacity="0.5"/>
    <circle cx="32" cy="32" r="28" fill="url(#seadark1200630clean)"/>
    <g clip-path="url(#discdark1200630clean)">
      <g stroke="#bcdcff" stroke-opacity="0.14" stroke-width="0.7" fill="none">
        <ellipse cx="32" cy="32" rx="28" ry="5.6"/>
        <ellipse cx="32" cy="20.5" rx="25.4" ry="4.6"/>
        <ellipse cx="32" cy="11" rx="18.6" ry="3"/>
        <ellipse cx="32" cy="43.5" rx="25.4" ry="4.6"/>
        <ellipse cx="32" cy="53" rx="18.6" ry="3"/>
        <ellipse cx="32" cy="32" rx="9.6" ry="28"/>
        <ellipse cx="32" cy="32" rx="19" ry="28"/>
        <line x1="32" y1="4" x2="32" y2="60"/>
      </g>
      <g fill="#f4f8fd">
        <path d="M21.5 13.5c-3.2.8-5 4-4.4 7.4.5 2.6 2.7 3.6 2.9 6.2.2 3.4-2.4 5.6-1.5 9 .8 3.1 3.6 5.2 5.8 4.3 2.4-1 2.3-4.4 1.4-7-.9-2.5-2.7-3.6-2.4-6.3.3-2.7 2.9-4 3.4-7 .5-3.3-1.6-6.5-5.2-6.6Z" opacity=".96"/>
        <path d="M35 16.5c5-1.6 11 .2 13.4 4.3 1.6 2.7-.2 5.6-2.6 7.2-2.9 2-6.7 1.6-8.6 4.6-1.8 2.8.2 6.6-2.6 8.6-2.7 1.9-6.4-.1-7.4-3.2-1.2-3.7 1.4-6.8 1.6-10.6.2-4.5 1.6-9.2 6.2-10.9Z"/>
        <path d="M45.5 40c3-.4 6 2 5.6 5-.4 2.8-3.6 4-6 2.6-2.3-1.4-2.6-4.8-1.3-6.6.5-.7 1-1 1.7-1Z" opacity=".92"/>
      </g>
      <circle cx="32" cy="32" r="28" fill="url(#shadedark1200630clean)"/>
      <path d="M7.5 24 C10 10.5 21 4.5 32 4.5 C43 4.5 54 10.5 56.5 24 C46 30.5 18 30.5 7.5 24 Z" fill="url(#glossdark1200630clean)" opacity="0.72"/>
      <ellipse cx="22" cy="12.5" rx="7.5" ry="3.6" fill="#fff" opacity="0.85"/>
    </g>
    <circle cx="32" cy="32" r="27.5" stroke="#0a1e42" stroke-opacity="0.85" stroke-width="1" fill="none"/>
    <circle cx="32" cy="32" r="30" fill="none" stroke="#34e3d0" stroke-opacity="0.35" stroke-width="0.6"/>
  </g></svg>