<svg xmlns="http://www.w3.org/2000/svg" width="1080" height="1080" viewBox="0 0 1080 1080">
  <rect width="1080" height="1080" fill="#070b15"/>
  <rect width="1080" height="1080" fill="url(#grad)"/>
  <defs>
    <linearGradient id="grad" x1="0" y1="0" x2="0.3" y2="1"><stop offset="0%" stop-color="#0d1526"/><stop offset="100%" stop-color="#070b15"/></linearGradient>
    <radialGradient id="au1" cx="80%" cy="8%" r="60%"><stop offset="0%" stop-color="rgba(52,227,208,0.16)"/><stop offset="100%" stop-color="transparent"/></radialGradient>
    <radialGradient id="au2" cx="12%" cy="30%" r="55%"><stop offset="0%" stop-color="rgba(70,110,255,0.14)"/><stop offset="100%" stop-color="transparent"/></radialGradient>
    <radialGradient id="au3" cx="65%" cy="105%" r="60%"><stop offset="0%" stop-color="rgba(150,84,255,0.12)"/><stop offset="100%" stop-color="transparent"/></radialGradient>
  </defs>
  <rect width="1080" height="1080" fill="url(#au1)"/>
  <rect width="1080" height="1080" fill="url(#au2)"/>
  <rect width="1080" height="1080" fill="url(#au3)"/>
  <defs>
    <radialGradient id="seadark10801080center" cx="34%" cy="26%" r="90%">
      <stop offset="0%" stop-color="#5a9be0"/><stop offset="35%" stop-color="#2762ad"/>
      <stop offset="70%" stop-color="#123a77"/><stop offset="100%" stop-color="#050f2b"/>
    </radialGradient>
    <radialGradient id="shadedark10801080center" cx="34%" cy="26%" r="95%">
      <stop offset="0%" stop-color="#000" stop-opacity="0"/><stop offset="72%" stop-color="#000" stop-opacity="0"/>
      <stop offset="100%" stop-color="#000814" stop-opacity="0.55"/>
    </radialGradient>
    <clipPath id="discdark10801080center"><circle cx="32" cy="32" r="28"/></clipPath>
  </defs>
  <g transform="translate(330.17 243.77) scale(6.5571)">
    <circle cx="32" cy="32" r="30" fill="#0a1e42" opacity="0.5"/>
    <circle cx="32" cy="32" r="28" fill="url(#seadark10801080center)"/>
    <g clip-path="url(#discdark10801080center)">
      <g stroke="#9fd0ff" stroke-opacity="0.30" stroke-width="0.7" fill="none">
        <ellipse cx="32" cy="32" rx="28" ry="5.6"/>
        <ellipse cx="32" cy="20.5" rx="25.4" ry="4.6"/>
        <ellipse cx="32" cy="11" rx="18.6" ry="3"/>
        <ellipse cx="32" cy="43.5" rx="25.4" ry="4.6"/>
        <ellipse cx="32" cy="53" rx="18.6" ry="3"/>
        <ellipse cx="32" cy="32" rx="9.6" ry="28"/>
        <ellipse cx="32" cy="32" rx="19" ry="28"/>
        <line x1="32" y1="4" x2="32" y2="60"/>
      </g>
      <circle cx="32" cy="32" r="28" fill="url(#shadedark10801080center)"/>
    </g>
    <circle cx="32" cy="32" r="27.5" stroke="#0a1e42" stroke-opacity="0.85" stroke-width="1" fill="none"/>
    <circle cx="32" cy="32" r="30" fill="none" stroke="#34e3d0" stroke-opacity="0.35" stroke-width="0.6"/>
  </g><text x="540" y="756" text-anchor="middle" font-family="-apple-system, BlinkMacSystemFont, 'Segoe UI', Roboto, system-ui, sans-serif" font-weight="800" font-size="118.8" letter-spacing="-2.4"><tspan fill="#e9eff9">Atlas</tspan></text><text x="540" y="837" text-anchor="middle" font-family="-apple-system, BlinkMacSystemFont, 'Segoe UI', Roboto, system-ui, sans-serif" font-weight="500" font-size="34.56" letter-spacing="0.6912" fill="#9fadc4">An AI agent for your business</text></svg>