<svg xmlns="http://www.w3.org/2000/svg" viewBox="0 0 64 64">
  <!-- Atlas Networks mark: skeuomorphic glossy globe. Transparent background. -->
  <defs>
    <radialGradient id="sea" cx="34%" cy="26%" r="90%">
      <stop offset="0%" stop-color="#5a9be0"/>
      <stop offset="35%" stop-color="#2762ad"/>
      <stop offset="70%" stop-color="#123a77"/>
      <stop offset="100%" stop-color="#050f2b"/>
    </radialGradient>
    <radialGradient id="shade" cx="34%" cy="26%" r="95%">
      <stop offset="0%" stop-color="#000000" stop-opacity="0"/>
      <stop offset="72%" stop-color="#000000" stop-opacity="0"/>
      <stop offset="100%" stop-color="#000814" stop-opacity="0.55"/>
    </radialGradient>
    <linearGradient id="gloss" x1="0" y1="0" x2="0" y2="1">
      <stop offset="0%" stop-color="#ffffff" stop-opacity="0.9"/>
      <stop offset="60%" stop-color="#ffffff" stop-opacity="0.25"/>
      <stop offset="100%" stop-color="#ffffff" stop-opacity="0"/>
    </linearGradient>
    <linearGradient id="rim" x1="0" y1="1" x2="0" y2="0">
      <stop offset="0%" stop-color="#6fb6ff" stop-opacity="0.5"/>
      <stop offset="35%" stop-color="#6fb6ff" stop-opacity="0.12"/>
      <stop offset="100%" stop-color="#6fb6ff" stop-opacity="0"/>
    </linearGradient>
    <clipPath id="disc"><circle cx="32" cy="32" r="28"/></clipPath>
  </defs>

  <circle cx="32" cy="32" r="28" fill="url(#sea)"/>
  <g clip-path="url(#disc)">
    <g fill="#0a2a55" transform="translate(0.9 1.2)" opacity="0.85">
      <path d="M20 14c4-3 9-2 11 1s0 6 3 7 8-1 10 2 1 6-2 7-7 0-9 3-1 7-4 8-7-1-8-5 1-6-1-9-6-3-6-7 3-5 6-7Z"/>
      <path d="M45 12c3-1 8 0 10 3l1 3c-3 2-7 2-9-1s-4-4-2-5Z"/>
      <path d="M27 45c3-1 6 1 6 4s-2 6-5 6-5-3-4-6 1-3 3-4Z"/>
      <path d="M48 40c3 0 6 3 5 6s-5 4-7 1 0-7 2-7Z"/>
    </g>
    <g fill="#f7fafd">
      <path d="M20 14c4-3 9-2 11 1s0 6 3 7 8-1 10 2 1 6-2 7-7 0-9 3-1 7-4 8-7-1-8-5 1-6-1-9-6-3-6-7 3-5 6-7Z"/>
      <path d="M45 12c3-1 8 0 10 3l1 3c-3 2-7 2-9-1s-4-4-2-5Z" opacity=".97"/>
      <path d="M27 45c3-1 6 1 6 4s-2 6-5 6-5-3-4-6 1-3 3-4Z"/>
      <path d="M48 40c3 0 6 3 5 6s-5 4-7 1 0-7 2-7Z" opacity=".95"/>
    </g>
    <circle cx="32" cy="32" r="28" fill="url(#shade)"/>
    <path d="M6 44 A28 28 0 0 0 58 44 A34 22 0 0 1 6 44 Z" fill="url(#rim)"/>
    <path d="M7.5 24 C10 10.5 21 4.5 32 4.5 C43 4.5 54 10.5 56.5 24 C46 30.5 18 30.5 7.5 24 Z" fill="url(#gloss)" opacity="0.8"/>
    <ellipse cx="22" cy="12.5" rx="7.5" ry="4" fill="#ffffff" opacity="0.9"/>
  </g>
  <circle cx="32" cy="32" r="27.5" fill="none" stroke="#0a1e42" stroke-opacity="0.8" stroke-width="1"/>
</svg>
